<svg xmlns="http://www.w3.org/2000/svg" viewBox="0 0 512 512">
  <defs>
    <radialGradient id="gradient" cx="50%" cy="50%" r="60%">
      <stop offset="0%" stop-color="#FFB267" />
      <stop offset="45%" stop-color="#EB4CC0" />
      <stop offset="100%" stop-color="#9A4DF3" />
    </radialGradient>
  </defs>
  <rect width="512" height="512" rx="128" fill="url(#gradient)" />
  <path
    d="M183 168c-26 18-43 48-43 82 0 62 47 114 118 114h8c19 0 38-4 53-12 6-3 8-10 5-16l-9-17c-3-6-10-8-16-5-10 5-22 7-34 7h-7c-47 0-80-29-80-71 0-22 11-41 28-55 24-17 61-21 90 4l-25 22c-5 5-5 14 1 18l14 9c5 4 12 3 17-1l49-44c6-5 6-15-1-20-21-15-46-23-73-23-30 0-58 9-75 23z"
    fill="#F6F4F9"
  />
</svg>
